<?xml version="1.0" encoding="UTF-8"?>
<svg id="Capa_2" data-name="Capa 2" xmlns="http://www.w3.org/2000/svg" viewBox="0 0 339.79 233.54">
  <defs>
    <style>
      .cls-1 {
        fill: #e0e1df;
      }

      .cls-1, .cls-2, .cls-3, .cls-4, .cls-5 {
        stroke-width: 0px;
      }

      .cls-2 {
        fill: #fff;
      }

      .cls-3 {
        fill: #646768;
      }

      .cls-4 {
        fill: #505051;
      }

      .cls-5 {
        fill: #7fbd42;
      }
    </style>
  </defs>
  <g id="Layer_1" data-name="Layer 1">
    <g>
      <path class="cls-2" d="M234.76,27.88c1.41-1.47,2.28-3.5,2.28-5.73,0-4.49-3.49-8.13-7.81-8.13h-126.3v16.25h126.3c2.17,0,4.12-.9,5.53-2.39Z"/>
      <path class="cls-2" d="M213.48,39.77h-92.12c-30.06,0-54.41,25.37-54.41,56.63v26.38c8.36,17.94,21.39,38.83,42.35,55.78,29.86,24.13,65.7,32.09,92.61,34.38h39.23c.56-.03.85-.04.88,0h25.9v-116.53c0-31.26-24.38-56.63-54.43-56.63ZM133.12,135.55c-5.09,0-9.21-10.48-9.21-23.4s4.13-23.4,9.21-23.4,9.21,10.48,9.21,23.4-4.13,23.4-9.21,23.4ZM206.83,135.55c-5.09,0-9.21-10.48-9.21-23.4s4.13-23.4,9.21-23.4,9.21,10.48,9.21,23.4-4.13,23.4-9.21,23.4Z"/>
      <path class="cls-2" d="M66.95,156.3c0,4.2.45,8.28,1.28,12.22-.43-15.16-.86-30.32-1.28-45.48v33.26Z"/>
      <path class="cls-1" d="M66.95,122.78v.26c.43,15.16.86,30.32,1.28,45.48,5.37,25.4,27.1,44.41,53.13,44.41h80.55c-26.91-2.29-62.75-10.24-92.61-34.38-20.96-16.94-34-37.84-42.35-55.78Z"/>
      <path class="cls-1" d="M241.14,212.93h.88s-.32-.03-.88,0Z"/>
      <path class="cls-3" d="M21.47,130.93c0-8.31-.46-16.09-1.24-22.71v.73c.77,6.52,1.22,14.17,1.23,22.34,0-.12,0-.24,0-.36Z"/>
      <path class="cls-5" d="M319.7,107.81v-30.1C319.7,34.78,286.29,0,245.04,0H94.9C53.67,0,20.23,34.78,20.23,77.71v30.52c.78,6.61,1.24,14.4,1.24,22.71,0,.12,0,.24,0,.36,0,.12,0,.24,0,.37,0,8.31-.46,16.07-1.24,22.71v1.46c0,42.91,33.44,77.71,74.67,77.71h150.14c41.25,0,74.67-34.8,74.67-77.71v-.31c-.88-6.86-1.39-15.05-1.39-23.85s.51-16.99,1.39-23.85ZM102.92,14.02h126.3c4.32,0,7.81,3.63,7.81,8.13,0,2.23-.87,4.27-2.28,5.73-1.41,1.49-3.36,2.39-5.53,2.39h-126.3V14.02ZM267.92,212.93H121.36c-26.02,0-47.76-19.01-53.13-44.41-.83-3.94-1.28-8.02-1.28-12.22v-59.9c0-31.26,24.35-56.63,54.41-56.63h92.12c30.06,0,54.43,25.37,54.43,56.63v116.53Z"/>
      <ellipse class="cls-4" cx="133.12" cy="112.15" rx="9.21" ry="23.4"/>
      <ellipse class="cls-4" cx="206.83" cy="112.15" rx="9.21" ry="23.4"/>
      <path class="cls-3" d="M21.47,131.3c-.01-8.17-.46-15.83-1.23-22.34-1.52-12.64-4.25-21.08-7.35-21.08-3.56,0-6.61,11.01-7.91,26.72,2.05,1.31,3.62,8.44,3.62,17.07s-1.57,15.76-3.62,17.07c1.3,15.7,4.35,26.72,7.91,26.72,3.1,0,5.83-8.44,7.35-21.08.78-6.64,1.24-14.4,1.24-22.71,0-.12,0-.24,0-.37Z"/>
      <path class="cls-3" d="M331.2,131.66c0-8.63,1.57-15.76,3.62-17.07-1.3-15.71-4.36-26.73-7.91-26.73-3.02,0-5.67,7.94-7.2,19.94-.88,6.86-1.39,15.05-1.39,23.85s.51,16.99,1.39,23.85c1.53,12,4.18,19.94,7.2,19.94,3.56,0,6.61-11.02,7.91-26.73-2.05-1.31-3.62-8.44-3.62-17.07Z"/>
      <path class="cls-5" d="M335.49,114.36c-.23,0-.46.09-.68.24-2.05,1.31-3.62,8.44-3.62,17.07s1.57,15.76,3.62,17.07c.22.14.45.24.68.24,2.37,0,4.29-7.75,4.29-17.3s-1.92-17.3-4.29-17.3Z"/>
      <path class="cls-5" d="M8.59,131.66c0-8.63-1.57-15.76-3.62-17.07-.22-.14-.45-.23-.68-.23-2.37,0-4.29,7.75-4.29,17.3s1.92,17.3,4.29,17.3c.23,0,.46-.09.68-.24,2.05-1.31,3.62-8.44,3.62-17.07Z"/>
    </g>
  </g>
</svg>